<mxfile host="app.diagrams.net" modified="2024-04-10T10:27:22.343Z" agent="Mozilla/5.0 (Windows NT 10.0; Win64; x64) AppleWebKit/537.36 (KHTML, like Gecko) Chrome/123.0.0.0 Safari/537.36" etag="i9AiaeLa5uWbqOD3n_tS" version="24.2.2" type="device">
  <diagram name="Page-1" id="fJc69EwLfXccRXHerRPC">
    <mxGraphModel dx="802" dy="556" grid="1" gridSize="10" guides="1" tooltips="1" connect="1" arrows="1" fold="1" page="1" pageScale="1" pageWidth="850" pageHeight="1100" math="0" shadow="0">
      <root>
        <mxCell id="0" />
        <mxCell id="1" parent="0" />
        <mxCell id="-uErfF7QEXMcnMk4r1XF-1" value="" style="shape=actor;whiteSpace=wrap;html=1;" vertex="1" parent="1">
          <mxGeometry x="90" y="280" width="30" height="40" as="geometry" />
        </mxCell>
        <mxCell id="-uErfF7QEXMcnMk4r1XF-4" style="edgeStyle=orthogonalEdgeStyle;rounded=0;orthogonalLoop=1;jettySize=auto;html=1;startArrow=blockThin;startFill=1;endArrow=blockThin;endFill=1;" edge="1" parent="1" source="-uErfF7QEXMcnMk4r1XF-2">
          <mxGeometry relative="1" as="geometry">
            <mxPoint x="240" y="300" as="targetPoint" />
          </mxGeometry>
        </mxCell>
        <mxCell id="-uErfF7QEXMcnMk4r1XF-2" value="" style="outlineConnect=0;dashed=0;verticalLabelPosition=bottom;verticalAlign=top;align=center;html=1;shape=mxgraph.aws3.classic_load_balancer;fillColor=#F58534;gradientColor=none;" vertex="1" parent="1">
          <mxGeometry x="160" y="280" width="40" height="40" as="geometry" />
        </mxCell>
        <mxCell id="-uErfF7QEXMcnMk4r1XF-3" style="edgeStyle=orthogonalEdgeStyle;rounded=0;orthogonalLoop=1;jettySize=auto;html=1;entryX=0;entryY=0.5;entryDx=0;entryDy=0;entryPerimeter=0;endArrow=blockThin;endFill=1;startArrow=blockThin;startFill=1;" edge="1" parent="1" source="-uErfF7QEXMcnMk4r1XF-1" target="-uErfF7QEXMcnMk4r1XF-2">
          <mxGeometry relative="1" as="geometry" />
        </mxCell>
        <mxCell id="-uErfF7QEXMcnMk4r1XF-6" style="edgeStyle=orthogonalEdgeStyle;rounded=0;orthogonalLoop=1;jettySize=auto;html=1;endArrow=blockThin;endFill=1;startArrow=blockThin;startFill=1;" edge="1" parent="1" source="-uErfF7QEXMcnMk4r1XF-5">
          <mxGeometry relative="1" as="geometry">
            <mxPoint x="360" y="300" as="targetPoint" />
          </mxGeometry>
        </mxCell>
        <mxCell id="-uErfF7QEXMcnMk4r1XF-5" value="&lt;font style=&quot;font-size: 10px;&quot;&gt;Front End&lt;/font&gt;" style="rounded=1;whiteSpace=wrap;html=1;" vertex="1" parent="1">
          <mxGeometry x="240" y="280" width="80" height="40" as="geometry" />
        </mxCell>
        <mxCell id="-uErfF7QEXMcnMk4r1XF-7" value="&lt;font style=&quot;font-size: 10px;&quot;&gt;Cloudflare&lt;/font&gt;" style="text;html=1;align=center;verticalAlign=middle;whiteSpace=wrap;rounded=0;" vertex="1" parent="1">
          <mxGeometry x="150" y="250" width="60" height="30" as="geometry" />
        </mxCell>
        <mxCell id="-uErfF7QEXMcnMk4r1XF-21" style="edgeStyle=orthogonalEdgeStyle;rounded=1;orthogonalLoop=1;jettySize=auto;html=1;entryX=1;entryY=0.5;entryDx=0;entryDy=0;curved=0;endArrow=blockThin;endFill=1;" edge="1" parent="1" source="-uErfF7QEXMcnMk4r1XF-8" target="-uErfF7QEXMcnMk4r1XF-19">
          <mxGeometry relative="1" as="geometry">
            <Array as="points">
              <mxPoint x="400" y="380" />
            </Array>
          </mxGeometry>
        </mxCell>
        <mxCell id="-uErfF7QEXMcnMk4r1XF-8" value="&lt;font style=&quot;font-size: 10px;&quot;&gt;Back End&lt;/font&gt;" style="rounded=1;whiteSpace=wrap;html=1;" vertex="1" parent="1">
          <mxGeometry x="360" y="280" width="80" height="40" as="geometry" />
        </mxCell>
        <mxCell id="-uErfF7QEXMcnMk4r1XF-10" value="&lt;font style=&quot;font-size: 10px;&quot;&gt;SvelteKit&lt;/font&gt;" style="text;html=1;align=center;verticalAlign=middle;whiteSpace=wrap;rounded=0;" vertex="1" parent="1">
          <mxGeometry x="250" y="250" width="60" height="30" as="geometry" />
        </mxCell>
        <mxCell id="-uErfF7QEXMcnMk4r1XF-11" value="&lt;font style=&quot;font-size: 10px;&quot;&gt;Actix Web&lt;/font&gt;" style="text;html=1;align=center;verticalAlign=middle;whiteSpace=wrap;rounded=0;" vertex="1" parent="1">
          <mxGeometry x="370" y="250" width="60" height="30" as="geometry" />
        </mxCell>
        <mxCell id="-uErfF7QEXMcnMk4r1XF-12" value="" style="shape=cylinder3;whiteSpace=wrap;html=1;boundedLbl=1;backgroundOutline=1;size=15;" vertex="1" parent="1">
          <mxGeometry x="480" y="270" width="40" height="60" as="geometry" />
        </mxCell>
        <mxCell id="-uErfF7QEXMcnMk4r1XF-14" style="edgeStyle=orthogonalEdgeStyle;rounded=0;orthogonalLoop=1;jettySize=auto;html=1;entryX=0;entryY=0.5;entryDx=0;entryDy=0;entryPerimeter=0;endArrow=blockThin;endFill=1;startArrow=blockThin;startFill=1;" edge="1" parent="1" source="-uErfF7QEXMcnMk4r1XF-8" target="-uErfF7QEXMcnMk4r1XF-12">
          <mxGeometry relative="1" as="geometry" />
        </mxCell>
        <mxCell id="-uErfF7QEXMcnMk4r1XF-15" value="&lt;font style=&quot;font-size: 10px;&quot;&gt;Supabase&lt;/font&gt;" style="text;html=1;align=center;verticalAlign=middle;whiteSpace=wrap;rounded=0;" vertex="1" parent="1">
          <mxGeometry x="470" y="240" width="60" height="30" as="geometry" />
        </mxCell>
        <mxCell id="-uErfF7QEXMcnMk4r1XF-17" value="&lt;font style=&quot;font-size: 10px;&quot;&gt;Crawler&lt;/font&gt;" style="rounded=1;whiteSpace=wrap;html=1;" vertex="1" parent="1">
          <mxGeometry x="460" y="360" width="80" height="40" as="geometry" />
        </mxCell>
        <mxCell id="-uErfF7QEXMcnMk4r1XF-18" style="edgeStyle=orthogonalEdgeStyle;rounded=1;orthogonalLoop=1;jettySize=auto;html=1;entryX=0.5;entryY=1;entryDx=0;entryDy=0;entryPerimeter=0;curved=0;endArrow=blockThin;endFill=1;" edge="1" parent="1" source="-uErfF7QEXMcnMk4r1XF-17" target="-uErfF7QEXMcnMk4r1XF-12">
          <mxGeometry relative="1" as="geometry" />
        </mxCell>
        <mxCell id="-uErfF7QEXMcnMk4r1XF-22" style="edgeStyle=orthogonalEdgeStyle;rounded=0;orthogonalLoop=1;jettySize=auto;html=1;exitX=0.5;exitY=0;exitDx=0;exitDy=0;entryX=0.5;entryY=1;entryDx=0;entryDy=0;endArrow=blockThin;endFill=1;startArrow=blockThin;startFill=1;" edge="1" parent="1" source="-uErfF7QEXMcnMk4r1XF-19" target="-uErfF7QEXMcnMk4r1XF-5">
          <mxGeometry relative="1" as="geometry" />
        </mxCell>
        <mxCell id="-uErfF7QEXMcnMk4r1XF-19" value="&lt;font style=&quot;font-size: 10px;&quot;&gt;CDN&lt;/font&gt;" style="rounded=1;whiteSpace=wrap;html=1;" vertex="1" parent="1">
          <mxGeometry x="240" y="360" width="80" height="40" as="geometry" />
        </mxCell>
      </root>
    </mxGraphModel>
  </diagram>
</mxfile>
